<?xml version="1.0" standalone="no"?>
<!DOCTYPE svg PUBLIC "-//W3C//DTD SVG 20010904//EN"
 "http://www.w3.org/TR/2001/REC-SVG-20010904/DTD/svg10.dtd">
<svg version="1.0" xmlns="http://www.w3.org/2000/svg"
 width="2000.000000pt" height="2000.000000pt" viewBox="0 0 2000.000000 2000.000000"
 preserveAspectRatio="xMidYMid meet">

<g transform="translate(0.000000,2000.000000) scale(0.100000,-0.100000)"
fill="#000000" stroke="none">
<path d="M15466 17022 c-3 -5 0 -25 6 -44 10 -32 7 -43 -21 -101 -22 -45 -40
-68 -59 -76 -15 -6 -42 -29 -61 -51 -19 -22 -40 -40 -48 -40 -25 0 -97 -38
-121 -63 -13 -14 -45 -33 -70 -42 -26 -10 -63 -30 -82 -45 -39 -31 -109 -70
-125 -70 -6 0 -22 -11 -36 -24 -15 -13 -48 -34 -74 -46 -26 -12 -74 -39 -105
-61 -32 -21 -62 -39 -68 -39 -6 0 -31 -15 -55 -34 -25 -19 -71 -47 -102 -62
-31 -14 -69 -39 -83 -55 -14 -16 -30 -29 -35 -29 -20 0 -102 -44 -135 -72 -18
-15 -40 -28 -48 -28 -22 0 -75 -29 -105 -57 -15 -13 -53 -35 -85 -48 -33 -13
-68 -33 -80 -44 -11 -11 -50 -30 -85 -42 -35 -11 -81 -34 -101 -50 -20 -16
-43 -29 -50 -29 -8 0 -18 -4 -24 -8 -5 -5 -30 -16 -56 -26 -25 -9 -52 -24 -59
-32 -13 -15 -58 -38 -99 -49 -53 -14 -100 -40 -105 -56 -4 -13 -24 -22 -63
-30 -75 -14 -125 -39 -137 -67 -6 -14 -18 -22 -35 -22 -40 0 -122 -35 -146
-63 -11 -13 -32 -28 -45 -32 -41 -13 -133 -65 -142 -81 -4 -7 -17 -14 -28 -14
-11 0 -30 -5 -42 -11 -18 -10 -46 -14 -129 -18 -16 -1 -18 -12 -18 -77 0 -71
2 -77 30 -106 17 -16 30 -39 30 -52 0 -12 6 -30 14 -41 7 -11 16 -32 19 -46 4
-15 18 -34 31 -42 13 -9 34 -36 46 -61 12 -25 30 -48 41 -51 10 -4 32 -26 49
-50 17 -24 39 -47 50 -50 12 -4 32 -24 46 -46 14 -23 32 -39 43 -39 20 0 81
-54 81 -71 0 -5 6 -9 13 -9 18 0 130 -58 142 -74 14 -18 49 -35 105 -52 27 -8
62 -25 77 -37 41 -34 118 -59 228 -72 54 -7 147 -30 180 -45 33 -15 221 -31
350 -29 177 3 273 15 335 42 30 14 75 28 100 32 40 6 73 14 170 41 14 4 32 12
40 19 17 14 65 35 135 60 28 10 64 30 80 46 17 15 42 31 58 34 15 4 27 11 27
16 0 5 6 9 13 9 6 0 24 13 39 28 15 15 48 38 75 52 26 14 63 42 81 63 19 20
38 37 44 37 12 0 131 120 161 162 9 14 28 31 41 38 14 7 27 24 31 37 3 14 22
42 41 62 19 20 49 64 66 99 16 35 39 68 49 75 10 6 19 16 19 22 0 5 6 21 13
35 7 14 21 46 30 71 10 26 26 56 36 68 18 21 36 91 66 261 10 52 25 109 34
125 13 25 16 65 16 250 -1 201 -3 226 -23 290 -35 107 -40 126 -48 180 -9 67
-28 119 -58 158 -13 17 -27 46 -31 62 -14 61 -37 109 -74 151 -21 24 -42 58
-47 76 -9 30 -14 33 -52 36 -40 3 -42 5 -48 43 -6 36 -25 52 -38 31z"/>
<path d="M12412 15425 c-1 -19 3 -35 9 -35 6 0 8 13 5 31 -7 43 -13 45 -14 4z"/>
<path d="M13574 13165 c11 -8 22 -12 25 -9 6 6 -19 24 -34 24 -5 -1 -1 -7 9
-15z"/>
<path d="M13620 13170 c0 -19 27 -21 61 -6 l34 14 -47 1 c-27 1 -48 -4 -48 -9z"/>
<path d="M13868 13173 c23 -2 61 -2 85 0 23 2 4 4 -43 4 -47 0 -66 -2 -42 -4z"/>
<path d="M5762 13098 c-14 -17 -23 -78 -11 -78 5 0 9 -5 9 -11 0 -5 -5 -7 -12
-3 -7 4 -8 3 -4 -4 4 -7 15 -12 26 -12 14 0 19 10 22 48 5 50 1 72 -12 72 -4
0 -12 -6 -18 -12z"/>
<path d="M12971 13079 c8 -5 10 -9 4 -10 -5 0 7 -7 29 -15 21 -7 49 -11 62 -8
15 4 24 2 24 -5 0 -16 42 -13 68 5 12 8 22 22 22 30 0 12 -19 15 -111 13 -68
-1 -106 -5 -98 -10z"/>
<path d="M14856 13077 c-36 -23 -73 -66 -65 -74 5 -5 -12 -15 -38 -22 -37 -11
-55 -12 -90 -3 -24 7 -63 12 -86 12 -38 0 -48 -5 -92 -50 -46 -46 -53 -50 -98
-50 -63 0 -187 -57 -187 -87 0 -4 -14 -16 -30 -25 -27 -15 -34 -16 -71 -3 -29
11 -85 15 -185 15 l-144 0 0 -45 0 -45 -100 0 -100 0 0 45 0 45 -190 0 -190 0
0 -89 c0 -89 0 -90 26 -93 l26 -3 -31 -29 -31 -30 0 27 0 27 -145 0 c-80 0
-145 -3 -145 -8 0 -4 -14 -23 -31 -42 -28 -30 -39 -34 -90 -38 l-58 -4 -3 -51
c-3 -44 -7 -53 -33 -68 -16 -10 -38 -18 -47 -18 -13 -1 -18 -9 -18 -31 0 -29
-1 -30 -50 -30 l-50 0 0 50 0 50 -48 0 c-44 0 -52 -4 -95 -48 -43 -43 -47 -52
-47 -95 l0 -47 -48 0 c-44 0 -52 -4 -97 -50 -45 -46 -53 -50 -96 -50 -47 0
-50 -2 -143 -95 l-95 -95 -95 0 -96 0 0 -50 0 -50 -50 0 c-31 0 -64 -8 -87
-20 -25 -13 -57 -20 -95 -20 -55 0 -58 -1 -58 -25 0 -23 -4 -25 -44 -25 l-45
0 -4 -52 -3 -53 -2 57 c-2 56 -3 58 -42 78 -24 12 -59 20 -90 20 l-50 0 -2
-77 c-1 -63 -2 -68 -5 -25 l-4 52 -95 0 c-94 0 -94 0 -94 -25 0 -23 -4 -25
-42 -25 -81 0 -148 -12 -148 -26 0 -9 -11 -14 -28 -14 -15 0 -38 -7 -50 -16
-21 -15 -24 -15 -35 0 -7 9 -29 17 -52 19 -38 2 -39 1 -45 -35 -4 -23 -3 -39
4 -42 6 -2 -10 -5 -35 -5 -42 -1 -77 -19 -64 -33 9 -8 -53 -70 -63 -64 -13 8
-40 -25 -44 -54 -2 -18 -12 -28 -38 -36 -37 -12 -45 -23 -55 -66 -4 -20 -13
-29 -33 -34 -48 -10 -51 -12 -58 -49 -5 -29 -12 -37 -35 -42 -16 -3 -31 -4
-35 -3 -11 3 -24 -23 -24 -50 -1 -35 -23 -60 -53 -60 -23 0 -28 -5 -33 -39 -6
-36 -31 -72 -71 -103 -19 -14 -40 -43 -49 -68 -3 -8 -25 -29 -47 -45 -23 -17
-43 -39 -45 -49 -5 -24 -33 -56 -51 -56 -18 0 -40 -30 -41 -56 0 -26 -30 -54
-57 -54 -24 0 -33 -18 -33 -62 0 -25 -6 -32 -40 -45 -32 -13 -41 -22 -46 -49
-4 -21 -24 -53 -56 -85 -28 -28 -55 -65 -60 -81 -6 -16 -22 -35 -37 -43 -33
-17 -50 -35 -54 -61 -4 -31 -17 -45 -53 -60 -22 -9 -34 -21 -34 -33 0 -36 -12
-51 -50 -61 -33 -9 -39 -15 -47 -48 -7 -32 -15 -39 -51 -52 -35 -12 -42 -19
-42 -41 0 -30 -23 -54 -62 -63 -21 -5 -30 -15 -38 -44 -7 -29 -18 -42 -42 -53
-21 -9 -39 -28 -50 -50 -9 -20 -35 -56 -58 -80 -23 -24 -53 -61 -67 -83 -14
-21 -33 -40 -43 -43 -10 -3 -28 -25 -39 -48 -14 -30 -32 -49 -55 -60 -25 -12
-37 -26 -41 -47 -6 -23 -16 -34 -47 -47 -28 -12 -41 -23 -45 -43 -6 -28 -41
-58 -68 -58 -8 0 -22 -18 -32 -41 -11 -30 -25 -45 -49 -55 -23 -10 -37 -25
-46 -50 -8 -24 -23 -40 -44 -49 -20 -8 -38 -27 -50 -51 -11 -22 -31 -45 -45
-51 -14 -7 -34 -31 -44 -53 -10 -22 -26 -42 -37 -46 -10 -3 -33 -24 -49 -47
-39 -54 -122 -148 -177 -201 -24 -23 -49 -53 -55 -66 -7 -14 -23 -30 -35 -36
-13 -6 -34 -27 -47 -47 -13 -19 -39 -44 -58 -55 -19 -11 -42 -33 -52 -48 -9
-16 -34 -40 -55 -53 -21 -13 -43 -34 -49 -47 -6 -13 -15 -24 -20 -24 -6 0 -75
-64 -155 -142 -223 -221 -404 -392 -423 -401 -10 -4 -26 -21 -35 -38 -10 -16
-30 -37 -45 -46 -15 -9 -37 -30 -48 -47 -11 -17 -35 -38 -52 -46 -18 -8 -33
-20 -33 -27 0 -18 -60 -73 -79 -73 -10 0 -23 -14 -32 -32 -8 -19 -29 -41 -49
-52 -19 -10 -44 -32 -55 -49 -11 -17 -34 -38 -51 -46 -17 -9 -37 -29 -44 -44
-7 -17 -29 -37 -55 -49 -25 -12 -46 -30 -49 -42 -3 -12 -25 -32 -50 -45 -25
-14 -50 -35 -57 -48 -7 -13 -31 -34 -54 -48 -23 -13 -50 -36 -59 -50 -9 -14
-21 -25 -26 -25 -5 0 -21 -11 -36 -25 -15 -14 -30 -25 -34 -25 -3 0 -28 -20
-53 -45 -26 -25 -55 -45 -65 -45 -10 0 -26 -14 -36 -31 -10 -16 -38 -40 -62
-52 -24 -11 -44 -25 -44 -30 0 -12 -40 -47 -53 -47 -5 0 -40 -24 -76 -54 -36
-29 -79 -60 -96 -69 -16 -8 -40 -27 -53 -42 -13 -14 -39 -33 -59 -41 -19 -8
-45 -25 -56 -38 -12 -12 -55 -44 -94 -70 -40 -26 -73 -51 -73 -55 0 -5 -22
-19 -49 -32 -28 -13 -55 -33 -62 -45 -6 -12 -29 -30 -51 -40 -22 -10 -54 -33
-71 -51 -17 -18 -37 -33 -44 -33 -7 0 -13 -4 -13 -9 0 -5 -14 -14 -30 -21 -17
-7 -43 -26 -58 -42 -15 -16 -46 -38 -69 -50 -23 -11 -49 -30 -57 -43 -8 -12
-34 -32 -58 -44 -24 -11 -58 -35 -76 -51 -18 -17 -53 -41 -79 -52 -26 -12 -56
-31 -66 -44 -10 -13 -39 -33 -65 -44 -26 -12 -58 -32 -72 -45 -14 -13 -50 -36
-80 -53 -30 -16 -70 -43 -89 -61 -18 -17 -39 -31 -46 -31 -7 0 -39 -20 -72
-44 -32 -24 -78 -53 -103 -64 -25 -11 -54 -30 -65 -43 -11 -12 -47 -34 -80
-49 -33 -16 -69 -38 -80 -50 -11 -12 -44 -33 -74 -46 -30 -14 -60 -31 -65 -39
-15 -17 -107 -65 -127 -65 -9 0 -24 -10 -35 -21 -10 -12 -53 -38 -94 -58 -41
-20 -91 -48 -110 -62 -19 -15 -46 -30 -60 -34 -14 -4 -55 -27 -91 -51 -37 -24
-71 -44 -76 -44 -15 0 -75 -31 -109 -57 -18 -13 -56 -32 -86 -43 -29 -10 -81
-36 -113 -58 -33 -22 -75 -43 -93 -47 -18 -4 -45 -17 -60 -30 -31 -26 -102
-65 -118 -65 -16 0 -74 -30 -74 -38 0 -10 -56 -38 -121 -60 -31 -11 -66 -29
-77 -40 -11 -11 -60 -32 -108 -47 -48 -15 -92 -32 -99 -38 -11 -12 -56 -35
-105 -55 -65 -27 -120 -55 -120 -61 0 -9 -59 -36 -100 -46 -14 -4 -47 -22 -75
-40 -27 -19 -85 -45 -127 -59 -43 -14 -95 -37 -115 -51 -21 -14 -43 -25 -50
-25 -7 0 -14 -15 -17 -33 -11 -70 -17 -1822 -6 -1876 11 -59 17 -71 28 -55 13
19 88 43 197 65 61 12 129 32 154 46 47 26 105 47 161 58 35 8 91 32 100 45 6
8 104 40 124 40 8 0 44 15 80 34 37 19 92 44 124 56 31 12 82 36 112 53 30 17
85 42 123 55 37 13 78 33 91 45 13 12 55 33 92 46 38 13 81 35 95 48 14 13 57
35 94 48 37 13 81 33 96 44 15 12 52 30 81 41 74 29 98 41 138 71 19 14 63 36
97 49 34 12 69 30 78 40 9 10 31 24 48 30 69 26 103 43 122 61 11 10 51 31 89
47 38 16 80 39 95 51 31 25 79 51 95 51 6 0 38 20 71 45 33 25 75 48 93 51 18
4 45 18 60 33 25 26 82 57 145 80 15 6 27 15 27 20 0 5 21 19 48 31 100 47
117 56 138 77 11 13 46 34 75 47 30 13 61 32 69 42 8 9 42 30 74 45 32 15 71
38 85 51 14 12 54 37 87 54 34 17 71 41 83 53 12 12 45 32 75 45 29 13 55 30
58 38 3 7 30 26 59 41 30 15 73 45 97 66 24 22 55 42 70 46 15 4 38 19 52 34
14 16 45 41 70 56 25 15 56 39 69 52 13 13 48 37 77 54 29 16 56 38 59 49 3
10 26 28 51 40 25 12 51 32 59 44 8 12 37 35 65 51 27 16 52 36 55 45 3 8 20
23 38 33 18 10 51 34 73 54 21 19 59 48 85 64 25 15 57 42 72 59 15 16 33 30
41 30 8 0 35 20 60 45 26 25 51 45 57 45 11 0 20 7 82 65 23 22 59 51 80 65
20 14 37 28 37 31 0 4 23 21 50 39 28 18 58 42 68 55 10 12 36 32 57 43 22 11
49 34 60 51 11 17 29 34 40 37 11 4 32 19 46 34 14 14 48 42 75 61 27 18 70
53 96 76 26 24 52 43 59 43 6 0 29 20 51 45 22 25 45 45 52 45 6 0 18 10 26
21 25 37 60 69 75 69 7 0 26 18 42 40 15 22 37 43 47 46 11 4 29 18 40 31 12
14 29 33 39 42 10 9 42 39 71 66 29 28 64 59 77 71 13 12 33 32 45 45 11 13
35 35 52 49 18 14 32 30 32 36 0 7 11 19 24 28 34 22 1126 1111 1126 1122 0 5
9 16 21 24 40 28 56 45 72 75 8 17 29 39 46 50 17 11 34 29 37 40 8 23 50 65
65 65 6 0 16 15 24 33 15 35 50 77 66 77 5 0 15 12 22 28 6 15 29 45 49 67 96
101 164 175 216 234 31 35 73 81 92 102 19 21 60 66 90 100 30 34 75 83 100
108 25 25 52 59 60 75 8 16 21 31 30 34 21 8 35 23 51 57 8 16 28 39 46 50 17
11 34 31 38 44 3 13 26 44 51 68 24 25 44 48 44 52 0 5 19 28 43 52 23 24 56
62 72 84 17 22 40 48 52 58 12 10 32 36 44 57 13 22 33 47 46 55 13 9 32 35
44 59 11 24 31 48 44 54 14 6 31 26 39 44 7 18 31 52 52 74 22 23 46 52 54 65
8 12 33 43 55 68 22 26 46 57 54 71 7 14 26 34 44 45 17 11 35 33 40 50 11 31
21 43 52 61 11 6 28 26 37 46 9 19 33 47 52 62 20 15 36 33 36 41 0 7 6 20 13
27 31 34 83 97 97 118 18 28 50 60 78 79 12 8 26 27 33 43 6 15 23 34 38 41
14 7 35 30 46 52 12 21 33 46 48 54 15 9 35 32 45 51 9 19 31 44 49 55 17 11
34 31 38 44 7 28 49 71 69 71 8 0 17 11 20 24 3 13 23 42 44 64 20 21 55 64
76 95 22 32 45 57 51 57 7 0 25 24 40 54 15 30 38 59 51 64 13 6 32 28 43 49
11 22 32 43 50 51 16 7 33 23 37 35 8 28 44 67 61 67 7 0 21 17 30 38 11 22
31 44 51 54 19 9 42 31 51 50 11 21 29 36 49 43 21 6 37 20 48 43 11 23 29 40
59 53 24 10 45 28 48 38 3 11 26 33 51 50 26 16 57 40 70 53 35 35 67 57 103
70 18 7 33 15 33 18 0 16 39 49 66 56 32 8 69 30 97 57 20 20 100 57 122 57 8
0 27 13 42 28 26 27 81 52 146 66 16 4 38 17 50 30 22 24 84 49 147 60 19 4
46 17 60 30 33 30 100 53 179 61 37 4 84 18 110 31 62 33 139 51 251 59 136 8
214 16 223 22 11 7 512 6 535 -1 9 -3 79 -10 155 -16 138 -11 271 -33 291 -49
15 -12 111 -38 171 -46 75 -10 155 -35 195 -60 19 -13 51 -26 70 -30 19 -3 44
-10 55 -15 11 -5 31 -11 45 -14 14 -3 37 -17 52 -30 14 -14 39 -28 55 -32 51
-13 108 -41 133 -66 14 -14 49 -34 79 -44 30 -11 70 -35 91 -55 20 -20 49 -39
66 -43 16 -4 50 -25 75 -46 26 -21 64 -48 86 -60 22 -11 45 -30 52 -43 6 -12
28 -33 47 -46 19 -13 48 -41 65 -62 16 -21 38 -41 49 -44 10 -3 29 -21 40 -40
12 -19 34 -42 49 -51 16 -9 37 -31 47 -48 22 -37 34 -50 55 -58 10 -4 25 -25
35 -47 10 -23 21 -41 26 -41 4 0 8 -6 8 -12 0 -7 14 -26 31 -43 17 -16 40 -51
52 -77 11 -26 28 -50 37 -53 9 -3 30 -30 45 -60 16 -30 39 -65 51 -78 20 -22
28 -36 68 -127 9 -19 27 -50 40 -68 14 -18 34 -63 46 -100 12 -37 28 -74 35
-82 18 -21 41 -82 61 -165 9 -38 22 -79 28 -90 20 -31 45 -122 57 -205 22
-151 29 -191 38 -208 41 -79 75 -422 68 -692 -8 -306 -26 -465 -62 -545 -8
-16 -19 -61 -24 -100 -26 -170 -47 -249 -73 -266 -4 -3 -19 -48 -32 -100 -28
-111 -42 -149 -55 -149 -5 0 -19 -33 -31 -72 -26 -87 -47 -132 -77 -166 -13
-13 -26 -41 -29 -61 -7 -38 -41 -97 -67 -119 -9 -8 -19 -27 -22 -43 -10 -45
-34 -88 -57 -100 -11 -6 -26 -25 -33 -43 -8 -18 -32 -51 -54 -73 -23 -22 -41
-46 -41 -52 0 -6 -4 -11 -8 -11 -4 0 -16 -13 -25 -30 -10 -16 -30 -42 -46 -57
-16 -16 -36 -43 -45 -60 -9 -18 -29 -39 -45 -49 -16 -9 -35 -31 -42 -48 -8
-18 -27 -37 -45 -45 -17 -7 -39 -26 -48 -43 -10 -16 -34 -39 -55 -52 -21 -13
-44 -35 -53 -48 -9 -13 -36 -37 -62 -53 -25 -16 -48 -36 -51 -44 -3 -9 -26
-29 -51 -45 -25 -16 -62 -46 -81 -67 -20 -21 -50 -43 -67 -49 -17 -5 -43 -25
-58 -44 -15 -19 -41 -37 -57 -41 -16 -3 -46 -22 -66 -41 -38 -36 -104 -74
-128 -74 -7 0 -22 -12 -34 -28 -11 -15 -46 -38 -79 -51 -32 -14 -68 -33 -79
-44 -25 -24 -86 -54 -128 -63 -18 -3 -46 -18 -62 -33 -17 -14 -50 -32 -75 -40
-93 -27 -135 -44 -145 -56 -18 -21 -69 -43 -120 -50 -65 -9 -115 -25 -140 -45
-35 -28 -82 -39 -309 -70 -38 -6 -74 -14 -81 -20 -11 -9 -53 -20 -165 -41 -82
-15 -509 -22 -692 -11 -161 10 -274 30 -303 52 -12 9 -89 24 -231 44 -121 17
-170 30 -192 48 -16 14 -75 29 -172 44 -42 6 -81 22 -160 63 -19 11 -54 22
-78 25 -50 7 -92 27 -126 61 -14 14 -32 25 -40 25 -34 0 -124 43 -136 65 -8
14 -25 26 -47 30 -54 10 -120 42 -144 69 -13 15 -32 26 -44 26 -24 0 -88 40
-121 76 -12 12 -39 28 -61 34 -25 8 -46 23 -61 45 -14 23 -35 38 -62 46 -22 7
-40 15 -40 19 0 17 -50 58 -101 85 -32 15 -64 40 -73 56 -11 19 -30 32 -57 39
-32 9 -43 18 -55 46 -9 21 -21 34 -33 34 -29 0 -71 39 -71 66 0 19 -5 24 -25
24 -27 0 -75 26 -75 41 0 13 -32 42 -61 55 -13 7 -36 28 -49 47 -13 19 -37 43
-52 52 -15 9 -31 27 -34 40 -3 13 -15 27 -25 30 -10 4 -19 10 -19 15 0 4 -9
10 -20 13 -20 5 -24 11 -34 60 -4 17 -13 27 -24 27 -32 0 -62 29 -62 61 0 20
-6 31 -17 35 -49 14 -68 31 -78 69 -7 21 -16 40 -21 41 -5 1 -21 5 -36 8 -23
5 -29 13 -34 46 -6 35 -10 40 -41 46 -35 7 -53 28 -53 64 0 11 -8 23 -17 26
-35 11 -63 28 -63 37 0 29 -34 75 -58 80 -20 4 -32 17 -45 46 -16 36 -23 41
-62 47 -40 5 -46 10 -53 38 l-9 31 -7 -37 c-7 -40 -29 -58 -70 -58 -20 0 -26
-5 -26 -23 0 -34 -22 -58 -60 -66 -24 -5 -36 -13 -38 -26 -6 -41 -25 -63 -58
-70 -19 -3 -34 -12 -34 -19 0 -31 -32 -75 -59 -81 -20 -4 -31 -14 -35 -31 -8
-31 -52 -74 -76 -74 -11 0 -21 -14 -29 -39 -7 -26 -19 -42 -34 -47 -30 -9 -52
-34 -61 -67 -3 -15 -13 -27 -22 -27 -8 0 -23 -13 -32 -30 -9 -16 -20 -30 -24
-30 -5 0 -8 -5 -8 -10 0 -14 -165 -180 -178 -180 -6 0 -17 -10 -23 -22 -15
-27 -29 -45 -53 -66 -10 -9 -27 -25 -38 -35 -10 -9 -22 -17 -28 -17 -5 0 -10
-12 -10 -26 0 -14 -5 -35 -11 -46 -9 -17 -8 -23 6 -31 9 -5 25 -17 35 -27 10
-10 27 -21 39 -25 12 -3 21 -12 21 -19 0 -7 9 -21 20 -31 11 -10 20 -23 20
-30 0 -6 11 -18 25 -25 14 -7 25 -19 25 -27 0 -7 7 -13 15 -13 9 0 20 -11 25
-25 12 -30 42 -61 68 -69 13 -4 26 -23 35 -49 11 -35 19 -43 47 -48 36 -8 50
-23 50 -57 0 -13 8 -25 18 -28 45 -14 67 -34 76 -68 6 -28 14 -37 35 -42 14
-3 31 -7 37 -9 5 -2 16 -21 22 -43 10 -34 17 -41 46 -46 30 -6 36 -12 47 -51
10 -32 19 -45 32 -45 23 0 67 -44 67 -67 0 -11 15 -24 39 -34 32 -14 42 -24
50 -56 9 -31 17 -41 43 -48 24 -7 38 -21 51 -47 11 -22 26 -38 36 -38 27 0 59
-28 66 -59 5 -22 13 -30 35 -35 33 -6 65 -34 75 -65 3 -12 13 -21 22 -21 8 0
41 -26 73 -57 31 -32 76 -69 98 -83 23 -14 42 -31 42 -38 0 -6 22 -24 50 -40
27 -15 55 -38 62 -50 7 -13 32 -33 55 -44 24 -11 51 -33 60 -49 9 -15 28 -31
42 -34 28 -7 91 -51 104 -72 7 -12 87 -53 103 -53 4 0 19 -13 33 -28 15 -16
57 -40 96 -55 40 -15 82 -40 98 -57 16 -16 38 -30 48 -30 31 0 111 -40 131
-65 10 -13 32 -26 48 -30 37 -8 120 -52 134 -70 11 -14 74 -38 133 -50 17 -3
44 -18 59 -32 25 -23 127 -63 161 -63 8 0 34 -13 57 -28 52 -35 81 -46 181
-68 44 -9 103 -28 131 -41 50 -22 88 -32 205 -53 31 -6 92 -22 135 -36 85 -28
134 -38 289 -59 218 -30 322 -45 360 -55 22 -5 65 -10 95 -10 30 0 82 -5 115
-10 33 -6 193 -11 355 -12 276 0 380 6 540 33 112 19 269 41 390 54 125 13
205 29 225 44 19 16 110 40 185 50 111 16 149 25 210 53 59 28 88 37 190 63
36 9 72 23 81 31 19 17 120 54 148 54 26 0 89 27 125 55 17 12 46 26 64 30 18
4 45 13 60 21 15 8 32 14 38 14 6 0 24 11 40 25 16 14 40 28 53 32 14 3 36 12
50 19 14 8 30 14 35 14 4 0 23 13 42 30 18 16 57 37 85 47 28 10 62 28 76 41
30 27 92 62 111 62 8 0 27 14 44 30 17 17 51 41 77 54 25 13 62 38 81 56 19
17 53 40 76 50 22 11 46 31 54 45 7 13 32 34 55 45 23 11 51 33 63 50 13 16
27 30 33 30 6 0 17 6 24 13 7 6 37 32 66 57 126 107 211 185 252 229 16 17 34
31 40 31 7 0 23 18 36 40 14 22 33 42 42 45 10 3 29 22 44 41 15 20 41 50 59
68 58 61 141 159 171 202 17 24 34 44 39 44 12 0 34 29 50 67 8 17 26 39 39
48 14 9 34 35 45 58 11 23 35 58 54 78 18 20 42 54 53 75 10 22 34 56 52 77
18 20 33 43 33 51 0 7 18 34 40 59 22 25 40 48 40 52 0 19 60 133 73 138 8 3
18 21 22 39 4 18 11 38 15 43 4 6 11 24 14 40 4 17 18 43 32 58 14 15 36 63
50 107 14 44 36 93 50 109 13 16 24 38 24 49 0 12 4 23 9 26 5 3 12 30 16 61
3 30 11 57 16 60 5 4 9 15 9 25 0 10 6 25 14 32 21 22 43 69 50 113 10 58 33
123 60 175 13 25 29 72 35 105 20 121 33 171 56 220 25 53 39 127 61 315 31
270 35 304 44 321 30 55 37 918 9 1024 -19 73 -38 188 -54 330 -20 182 -33
268 -43 274 -21 15 -47 123 -77 316 -4 22 -17 56 -29 75 -13 19 -33 80 -46
135 -13 55 -40 133 -61 175 -20 41 -40 90 -44 109 -4 19 -17 51 -28 70 -32 56
-57 109 -57 121 0 21 -42 105 -65 130 -12 14 -26 36 -30 50 -9 29 -46 90 -70
113 -9 9 -27 41 -40 72 -14 31 -32 58 -40 61 -8 4 -26 28 -40 56 -14 27 -42
70 -64 96 -21 26 -46 64 -56 85 -9 20 -23 37 -29 37 -7 0 -28 25 -47 55 -18
30 -41 57 -49 60 -9 3 -23 18 -33 34 -9 15 -36 48 -59 73 -70 72 -152 169
-173 204 -11 18 -32 42 -48 54 -15 12 -34 34 -42 50 -8 15 -29 37 -47 48 -18
11 -41 34 -51 51 -10 17 -25 31 -33 31 -8 0 -14 4 -14 9 0 5 -9 13 -21 16 -11
4 -25 18 -31 31 -6 13 -30 35 -52 48 -23 14 -57 40 -76 58 -19 18 -52 42 -72
52 -21 10 -51 34 -68 52 -17 19 -36 34 -43 34 -16 0 -77 53 -77 67 0 5 -22 19
-50 31 -27 12 -50 26 -50 32 0 5 -7 10 -15 10 -7 0 -18 6 -22 13 -10 17 -60
44 -93 51 -14 3 -38 18 -55 33 -16 15 -39 33 -52 40 -64 33 -91 50 -118 74
-16 15 -45 29 -64 33 -18 3 -60 24 -92 46 -32 21 -70 42 -86 45 -49 11 -107
39 -130 62 -13 13 -43 28 -68 33 -25 6 -65 14 -89 20 -59 12 -150 42 -156 50
-5 7 -195 20 -297 20 -51 0 -51 0 -73 45 l-22 45 -76 -1 c-43 0 -85 -6 -96
-12z m-8 -49 c-6 -18 -28 -21 -28 -4 0 9 7 16 16 16 9 0 14 -5 12 -12z"/>
<path d="M5680 12963 c-22 -9 -47 -36 -52 -59 -4 -18 0 -21 33 -23 l39 -2 0
46 c0 25 -1 45 -2 44 -2 0 -10 -3 -18 -6z"/>
<path d="M5575 12860 c-4 -6 -10 -8 -15 -5 -5 3 -11 -4 -15 -15 -3 -11 -11
-20 -16 -20 -5 0 -9 -7 -9 -15 0 -11 12 -15 45 -15 41 0 45 2 45 24 0 46 -19
71 -35 46z"/>
<path d="M5441 12722 c-6 -2 -8 -8 -5 -14 4 -6 10 -5 15 3 6 10 9 11 9 2 0 -7
12 -13 26 -13 34 0 26 25 -8 25 -14 1 -30 -1 -37 -3z"/>
<path d="M5258 12649 c-16 -6 -31 -22 -37 -41 -9 -26 -9 -29 4 -18 8 6 23 9
35 5 25 -8 90 2 90 14 0 15 -37 51 -51 50 -8 0 -26 -5 -41 -10z"/>
<path d="M11737 12590 c3 -11 7 -20 9 -20 2 0 8 9 14 20 9 17 8 20 -9 20 -14
0 -18 -5 -14 -20z"/>
<path d="M5164 12582 c5 -8 -3 -10 -26 -8 -53 7 -150 -50 -118 -69 41 -25 175
-1 175 31 0 11 -6 18 -14 16 -8 -2 -11 3 -8 12 4 9 1 18 -5 22 -7 4 -8 3 -4
-4z"/>
<path d="M11540 12501 c0 -15 16 -22 34 -15 25 9 19 24 -9 24 -14 0 -25 -4
-25 -9z"/>
<path d="M4885 12460 c-11 -5 -38 -9 -61 -9 -22 -1 -44 -4 -48 -8 -4 -5 -22
-13 -39 -20 -32 -11 -32 -11 21 -14 60 -2 129 -3 172 -1 24 2 28 5 23 20 -7
16 -33 42 -43 41 -3 0 -14 -4 -25 -9z"/>
<path d="M11260 12299 c0 -18 2 -19 15 -9 8 7 15 16 15 21 0 5 -7 9 -15 9 -9
0 -15 -9 -15 -21z"/>
<path d="M10889 12013 c-13 -16 -12 -17 4 -4 16 13 21 21 13 21 -2 0 -10 -8
-17 -17z"/>
<path d="M10782 11917 c2 -21 5 -24 21 -16 21 12 18 33 -6 37 -13 3 -16 -3
-15 -21z"/>
<path d="M10586 11742 c-5 -8 -5 -72 0 -72 8 0 54 49 54 58 0 17 -44 29 -54
14z"/>
<path d="M4015 10020 c-11 -5 -48 -9 -82 -9 -60 -1 -63 -2 -63 -26 0 -19 -5
-25 -23 -25 -12 0 -47 -9 -77 -20 -30 -11 -62 -20 -72 -20 -9 0 -23 -7 -32
-15 -8 -8 -19 -15 -24 -15 -5 0 -19 -9 -32 -20 -16 -14 -37 -20 -70 -20 -43 0
-52 -5 -99 -50 -35 -34 -66 -54 -95 -61 -51 -13 -142 -99 -148 -139 -2 -13
-13 -29 -24 -35 -42 -21 -76 -73 -72 -109 3 -28 1 -32 -14 -28 -10 2 -24 -1
-31 -7 -8 -6 -38 -14 -68 -18 -42 -6 -56 -13 -64 -31 -5 -12 -17 -22 -26 -22
-8 0 -22 -12 -29 -27 -8 -16 -23 -38 -33 -50 -16 -18 -19 -33 -15 -87 2 -36 1
-60 -3 -54 -7 12 -29 -29 -29 -53 0 -6 -11 -29 -24 -52 -13 -23 -26 -62 -29
-87 -7 -60 -15 -78 -38 -85 -21 -7 -63 -80 -54 -95 8 -13 -15 -100 -27 -100
-18 0 -35 -66 -37 -141 -1 -63 1 -78 18 -93 19 -17 19 -16 26 46 11 118 12
133 3 150 -9 19 19 33 64 30 29 -2 32 4 43 113 7 64 15 75 56 75 25 0 27 3 33
70 4 38 7 72 6 75 -2 14 31 35 54 35 20 0 27 6 32 28 14 64 25 80 60 86 25 5
34 12 34 27 0 32 30 69 56 69 14 0 28 9 35 23 7 12 12 22 11 22 -1 0 1 9 4 21
3 12 21 25 47 35 34 11 43 19 47 44 4 25 12 32 52 45 41 13 47 19 50 44 3 26
9 31 56 44 40 11 56 22 67 43 17 33 59 55 120 65 38 5 45 10 50 34 8 37 27 45
123 57 45 5 55 10 63 30 18 49 24 51 159 64 132 13 159 19 170 39 25 47 173
63 600 66 464 2 450 2 425 17 -17 10 -65 26 -125 41 -31 8 -180 18 -320 21
-291 8 -569 24 -589 34 -23 13 -68 13 -96 1z"/>
<path d="M5285 9840 c-4 -6 -10 -8 -14 -6 -4 3 -13 1 -21 -5 -10 -6 4 -9 44
-9 51 0 57 2 46 15 -14 17 -46 20 -55 5z"/>
<path d="M7650 9635 c-11 -13 -8 -15 25 -15 25 0 35 4 33 13 -7 18 -43 20 -58
2z"/>
<path d="M7520 9576 c0 -43 2 -46 28 -46 19 0 23 -3 13 -9 -7 -5 -10 -14 -7
-20 4 -6 2 -10 -5 -9 -6 2 -14 -3 -17 -11 -3 -9 0 -11 8 -6 9 5 11 4 6 -3 -13
-22 -26 -12 -26 18 0 17 -3 30 -6 30 -3 0 -18 -14 -34 -31 -17 -19 -34 -29
-43 -26 -8 3 -23 -3 -33 -14 -13 -14 -30 -19 -70 -19 l-54 0 -11 -45 c-6 -25
-17 -45 -23 -45 -18 0 -56 -81 -56 -118 0 -26 -5 -31 -30 -37 -40 -9 -60 -30
-60 -65 0 -21 -9 -35 -31 -51 -28 -20 -30 -26 -27 -70 3 -49 3 -49 -28 -49
-39 0 -52 -14 -56 -65 -3 -35 -7 -40 -35 -48 -17 -5 -33 -17 -36 -26 -3 -9 -8
-24 -12 -33 -7 -18 26 -58 49 -58 16 0 176 155 176 170 0 6 6 10 14 10 14 0
43 37 63 82 6 14 24 32 39 40 19 9 32 25 39 51 12 42 28 57 62 57 21 0 25 6
37 63 5 19 13 27 27 27 36 0 59 19 59 49 0 34 15 48 55 53 29 3 30 5 33 56 l3
52 45 0 44 0 1 48 c0 26 1 67 2 92 l1 45 -52 3 -52 3 0 -45z m-66 -153 c-5 -5
-12 -12 -16 -18 -4 -6 -8 -2 -8 8 0 9 7 17 17 17 9 0 12 -3 7 -7z m-217 -260
c-2 -16 -4 -3 -4 27 0 30 2 43 4 28 2 -16 2 -40 0 -55z"/>
<path d="M6823 8695 c-21 -23 -15 -35 18 -35 26 0 30 3 27 22 -4 27 -28 34
-45 13z"/>
<path d="M6745 8580 c-3 -5 -1 -10 4 -10 6 0 11 5 11 10 0 6 -2 10 -4 10 -3 0
-8 -4 -11 -10z"/>
<path d="M2512 8135 c-15 -31 -16 -65 -2 -65 5 0 7 -6 4 -14 -3 -8 -1 -23 5
-33 8 -14 10 0 11 60 0 42 -2 77 -3 77 -2 0 -9 -11 -15 -25z"/>
<path d="M2498 5509 c-16 -31 -28 -61 -28 -67 0 -7 -4 -12 -10 -12 -6 0 -10
-28 -10 -65 0 -50 -3 -65 -14 -65 -18 0 -73 -46 -87 -72 -8 -16 -8 -23 2 -29
38 -24 147 5 168 44 8 15 11 71 9 172 l-3 150 -27 -56z"/>
<path d="M2201 5141 l-32 -29 30 -7 c38 -8 91 2 91 18 0 13 -20 47 -20 34 0
-4 -8 -3 -19 2 -14 8 -25 4 -50 -18z"/>
<path d="M2040 5020 c0 -5 9 -10 21 -10 11 0 17 5 14 10 -3 6 -13 10 -21 10
-8 0 -14 -4 -14 -10z"/>
</g>
</svg>
