<?xml version="1.0" encoding="utf-8"?>
<!DOCTYPE svg PUBLIC "-//W3C//DTD SVG 1.0//EN" "http://www.w3.org/TR/2001/REC-SVG-20010904/DTD/svg10.dtd">
<svg version="1.0" xmlns="http://www.w3.org/2000/svg" width="2000px" height="2000px" viewBox="0 0 2000 2000" preserveAspectRatio="xMidYMid meet">
 <g fill="#fefefe">
  <path d="M0 1000 l0 -1000 1000 0 1000 0 0 1000 0 1000 -1000 0 -1000 0 0 -1000z m110.74 808.40 c8.98 -3.71 12.70 -5.08 23.05 -8.59 5.47 -1.95 10.74 -4.30 11.91 -5.27 1.17 -0.78 7.81 -3.32 14.65 -5.66 6.84 -2.15 17.38 -6.45 23.24 -9.57 5.86 -3.13 15.43 -7.42 20.90 -9.57 5.66 -2.15 21.88 -9.77 36.13 -16.60 14.26 -7.03 29.10 -14.06 32.81 -15.63 3.71 -1.76 8.98 -4.49 11.72 -6.05 2.73 -1.37 6.25 -3.32 7.81 -3.91 1.56 -0.59 6.45 -3.32 10.74 -5.86 4.30 -2.73 9.96 -5.86 12.70 -7.23 2.73 -1.37 7.03 -3.91 9.77 -5.66 2.73 -1.76 12.50 -7.23 21.88 -12.30 9.18 -4.88 22.07 -11.91 28.32 -15.82 6.25 -3.71 12.11 -6.84 12.89 -6.84 0.98 0 4.49 -2.15 7.81 -4.69 3.52 -2.54 13.28 -8.79 21.88 -13.87 22.07 -13.28 65.04 -41.60 74.22 -49.02 4.30 -3.32 15.82 -11.52 25.39 -17.97 9.77 -6.45 19.73 -13.87 22.27 -16.80 2.73 -2.73 5.47 -5.08 6.25 -5.08 6.45 0 108.59 -85.55 162.70 -135.94 86.91 -81.05 214.65 -218.75 298.05 -321.09 60.16 -74.02 122.07 -145.51 155.08 -179.49 18.55 -19.14 52.15 -45.70 64.84 -51.37 3.13 -1.37 9.96 -5.47 15.43 -8.79 5.27 -3.52 10.94 -6.45 12.70 -6.45 1.56 0 6.05 -1.95 9.77 -4.30 8.79 -5.27 31.84 -12.70 68.36 -21.68 5.27 -1.17 31.05 -2.15 64.45 -2.15 52.15 -0.20 56.64 0 71.88 4.30 25.78 7.03 39.06 11.91 59.96 22.46 81.45 40.63 136.91 114.06 157.62 208.98 3.91 17.58 4.30 25.59 4.49 68.75 0 55.08 -2.34 71.88 -15.82 110.74 -35.35 102.73 -119.34 184.77 -224.41 218.95 -41.60 13.48 -51.76 15.23 -95.90 16.41 -73.05 1.95 -124.61 -8.79 -185.35 -38.48 -56.84 -27.93 -102.34 -65.23 -175.20 -144.14 -17.38 -18.55 -32.03 -33.40 -32.62 -33.20 -2.93 1.17 -99.80 105.08 -99.80 106.84 0 2.54 53.71 60.16 80.86 86.91 79.49 77.93 149.80 122.46 240.82 152.54 73.44 24.41 169.53 32.81 235.94 20.70 41.21 -7.62 86.91 -20.90 115.23 -33.40 21.09 -9.38 54.10 -25.78 59.57 -29.30 2.73 -1.95 14.65 -9.77 26.37 -17.77 11.91 -7.81 27.73 -18.95 35.16 -24.80 21.48 -16.80 69.14 -66.21 87.70 -90.82 67.19 -89.45 101.56 -191.02 101.37 -299.22 -0.39 -124.80 -49.02 -242.77 -136.33 -330.27 -12.89 -12.89 -30.27 -28.91 -38.48 -35.55 -61.33 -49.61 -141.21 -84.18 -219.34 -95.31 -34.57 -4.69 -97.66 -2.93 -133.79 3.91 -46.48 8.79 -88.48 23.44 -131.84 45.90 -50.59 26.37 -80.27 48.24 -123.05 91.02 -33.59 33.40 -44.14 45.31 -107.42 121.09 -128.52 153.71 -228.52 259.96 -332.03 352.34 -92.97 83.01 -217.97 171.29 -333.98 235.55 -55.08 30.47 -136.52 70.31 -175.98 86.33 l-12.50 4.88 0 94.53 c0 58.59 0.78 94.53 1.95 94.53 0.98 0 4.30 -0.98 7.23 -2.15z m4.88 -266.60 c5.47 -2.73 14.84 -6.64 20.90 -8.59 6.05 -1.95 16.41 -6.25 23.24 -9.57 6.64 -3.32 13.48 -6.05 15.04 -6.05 1.37 0 3.13 -0.78 3.91 -1.76 1.76 -3.13 26.95 -15.82 30.86 -15.82 1.56 0 4.10 -1.37 5.47 -3.13 1.37 -1.76 9.57 -6.64 18.16 -10.74 8.40 -4.10 16.60 -8.59 17.97 -9.77 2.34 -1.76 2.73 -25.78 2.73 -137.30 0 -145.90 0.39 -153.91 10.74 -187.89 20.12 -66.41 71.88 -115.82 140.63 -133.98 22.46 -5.86 25 -6.25 61.52 -6.25 36.13 0 39.06 0.20 55.66 5.27 23.44 7.23 51.17 21.09 69.34 34.77 18.95 14.26 51.56 48.24 70.31 73.05 l14.45 19.34 31.84 -33.20 c69.14 -71.48 73.24 -76.37 70.90 -80.66 -4.88 -9.38 -35.55 -45.70 -53.32 -63.28 -75.20 -74.61 -184.38 -116.60 -283.98 -108.98 -47.66 3.71 -87.11 14.26 -131.05 35.35 -41.60 20.12 -70.31 40.82 -104.10 75.39 -61.72 63.48 -97.07 142.38 -105.08 234.18 -1.37 13.87 -2.15 88.87 -2.15 184.18 0 142.97 0.39 160.55 2.93 160.55 1.76 0 7.62 -2.34 13.09 -5.08z m371.29 -779.88 c26.76 -8.59 46.88 -19.73 65.04 -36.33 54.10 -49.22 73.83 -110.94 55.27 -173.83 -19.92 -66.99 -86.13 -120.51 -153.13 -123.63 -81.05 -3.71 -151.76 47.46 -175.98 127.54 -6.84 22.27 -7.62 56.84 -2.15 77.15 17.97 65.82 70.90 116.80 136.13 131.05 22.27 4.88 55.86 3.91 74.80 -1.95z m965.43 -191.41 c19.92 -5.66 32.42 -11.72 47.85 -22.85 5.08 -3.71 9.96 -6.64 11.13 -6.64 3.32 0 34.77 -34.38 43.95 -48.44 34.57 -51.76 38.48 -109.77 11.13 -165.82 -24.22 -49.80 -66.02 -83.59 -120.70 -97.46 -55.08 -14.06 -119.14 5.08 -162.50 48.44 -28.52 28.52 -45.51 61.52 -51.95 100.78 -8.20 50.59 12.50 108.20 52.54 146.29 36.91 34.96 76.17 50.78 126.56 51.17 19.53 0.20 25.39 -0.59 41.99 -5.47z"/>
 </g>
 <g fill="#74c14b">
  <path d="M267.58 624.22 c-12.50 -83.20 37.30 -165.63 116.21 -192.97 22.07 -7.42 40.82 -9.96 70.31 -8.98 22.85 0.78 27.34 1.56 45.51 7.81 45.51 15.82 81.84 47.46 103.52 90.43 6.05 12.30 15.23 39.65 13.67 41.21 -2.54 2.54 -109.77 27.93 -239.84 56.64 -31.64 7.03 -66.41 14.84 -76.95 17.58 -10.55 2.54 -21.68 4.69 -24.61 4.69 -5.27 0 -5.47 -0.39 -7.81 -16.41z"/>
 </g>
 <g fill="#1b88c7">
  <path d="M890.63 1203.71 c-12.30 -12.70 -37.50 -38.48 -56.05 -57.42 -18.55 -18.95 -33.79 -34.96 -33.79 -35.94 0 -1.56 3.32 -5.47 42.97 -50 40.04 -44.92 57.81 -65.63 106.45 -123.83 22.46 -26.76 48.63 -58.01 58.40 -69.34 25.98 -30.08 76.56 -80.47 80.08 -79.69 1.56 0.20 11.52 10.94 22.07 23.44 10.55 12.50 32.42 38.09 48.83 56.84 16.21 18.95 30.66 35.94 32.03 38.28 2.34 3.52 0.78 5.86 -20.12 26.95 -31.64 32.23 -73.44 79.88 -129.49 147.85 -89.45 108.40 -121.88 145.70 -126.37 145.70 -1.56 0 -12.70 -10.35 -25 -22.85z"/>
 </g>
 <g fill="#67b547">
  <path d="M94.92 1553.52 c-2.15 -5.47 -1.17 -332.23 0.98 -357.23 8.01 -91.80 43.36 -170.70 105.08 -234.18 33.79 -34.57 62.50 -55.27 104.10 -75.39 45.31 -21.68 83.98 -31.84 134.77 -35.55 89.26 -6.25 176.56 19.53 251.56 74.41 30.86 22.46 58.40 50.59 86.33 87.70 10.94 14.65 13.48 18.95 12.11 22.07 -2.15 4.49 -111.72 118.95 -113.87 118.95 -0.98 0 -8.98 -9.96 -17.97 -21.88 -19.92 -26.95 -52.15 -60.55 -72.07 -75.59 -18.16 -13.67 -45.90 -27.54 -69.34 -34.77 -16.21 -4.88 -20.12 -5.27 -49.80 -5.27 -29.88 0.20 -33.98 0.59 -55.66 6.25 -33.20 8.79 -60.94 23.83 -88.28 48.05 -20.70 18.36 -42.97 54.88 -52.34 85.94 -10.35 33.98 -10.74 41.99 -10.74 187.89 0 111.52 -0.39 135.55 -2.73 137.30 -1.37 1.17 -9.57 5.66 -17.97 9.77 -8.59 4.10 -16.80 8.98 -18.16 10.74 -1.37 1.76 -3.91 3.13 -5.47 3.13 -3.91 0 -29.10 12.70 -30.86 15.82 -0.78 0.98 -2.54 1.76 -3.91 1.76 -1.56 0 -8.40 2.73 -15.04 6.05 -6.84 3.32 -17.19 7.62 -23.24 9.57 -6.05 1.95 -14.84 5.47 -19.34 7.81 -6.25 3.13 -23.63 9.57 -26.56 9.77 -0.20 0 -0.98 -1.37 -1.56 -3.13z"/>
  <path d="M406.25 769.73 c-60.35 -13.28 -109.57 -56.45 -130.86 -115.23 -6.05 -16.60 -7.23 -22.85 -3.91 -20.70 1.17 0.78 10.94 -0.98 22.07 -3.71 10.94 -2.54 42.38 -9.77 69.73 -15.82 154.10 -34.18 248.05 -56.64 250.20 -59.96 4.30 -6.84 8.59 38.28 5.86 61.33 -5.47 46.29 -24.41 82.03 -61.52 115.82 -18.16 16.41 -38.09 27.54 -65.04 36.33 -19.14 6.05 -63.09 7.03 -86.52 1.95z"/>
 </g>
 <g fill="#147bbe">
  <path d="M1241.41 480.08 c-25 -51.95 -24.41 -109.96 1.76 -161.72 19.14 -37.89 55.66 -71.48 93.36 -86.13 78.71 -30.27 163.48 -8.98 213.87 53.71 6.05 7.81 12.89 17.19 14.84 21.09 3.32 6.05 3.52 7.42 0.98 9.57 -5.08 4.88 -26.95 19.34 -29.10 19.34 -0.98 0 -1.95 0.98 -1.95 1.95 0 1.17 -1.95 1.95 -4.10 1.95 -2.34 0 -7.62 3.13 -11.72 6.84 -4.10 3.71 -9.96 7.42 -12.89 8.01 -3.13 0.78 -6.84 2.93 -8.40 4.69 -3.52 4.10 -18.16 11.72 -22.46 11.72 -1.56 0 -2.93 0.78 -2.93 1.56 0 0.98 -3.52 3.32 -7.81 5.27 -4.10 1.95 -9.18 4.88 -11.13 6.64 -1.95 1.76 -7.23 4.88 -11.72 6.84 -4.69 2.15 -8.40 4.49 -8.40 5.47 0 0.78 -1.76 1.56 -3.91 1.56 -2.15 0 -3.91 0.78 -3.91 1.95 0 0.98 -2.15 2.34 -4.88 3.13 -2.73 0.59 -4.88 1.95 -4.88 2.73 0 0.98 -3.13 2.73 -6.84 3.91 -3.71 1.17 -6.84 2.93 -6.84 3.52 0 1.37 -14.26 8.20 -17.19 8.20 -0.78 0 -2.73 1.76 -4.30 3.91 -1.56 2.15 -4.30 3.91 -5.86 3.91 -5.27 0 -13.67 4.69 -14.84 8.40 -0.59 1.76 -2.73 3.32 -4.69 3.32 -3.91 0 -18.16 7.62 -19.14 10.16 -0.39 0.78 -2.15 1.56 -4.10 1.56 -1.76 0 -4.49 1.76 -6.05 3.91 -1.56 2.15 -4.69 3.91 -6.84 3.91 -5.86 0 -14.65 4.49 -14.65 7.42 0 1.37 -2.54 2.93 -5.86 3.71 -3.13 0.59 -5.86 1.76 -5.86 2.73 0 0.98 -1.37 1.76 -3.13 1.76 -1.76 0 -4.69 1.56 -6.45 3.71 -1.76 1.95 -6.64 5.27 -11.13 7.62 -4.30 2.15 -8.98 5.47 -10.35 7.03 -1.56 1.76 -4.69 3.13 -7.23 3.13 -3.91 0 -6.05 -2.93 -13.28 -17.97z"/>
 </g>
 <g fill="#1571b3">
  <path d="M95.70 1717.97 l0 -102.34 12.50 -4.88 c39.45 -16.02 120.90 -55.86 175.98 -86.33 111.91 -62.11 237.11 -149.80 327.15 -229.30 37.70 -33.20 105.66 -99.22 149.02 -144.34 l44.53 -46.68 35.55 36.33 c19.53 19.92 45.90 46.88 58.40 59.77 l23.05 23.24 -6.45 7.03 c-3.71 3.71 -20.90 22.66 -38.67 41.99 -40.04 43.75 -124.61 129.88 -161.13 163.87 -54.10 50.39 -156.25 135.94 -162.70 135.94 -0.78 0 -3.52 2.34 -6.25 5.08 -2.54 2.93 -12.50 10.35 -22.27 16.80 -9.57 6.45 -21.09 14.65 -25.39 17.97 -9.18 7.42 -52.15 35.74 -74.22 49.02 -8.59 5.08 -18.36 11.33 -21.88 13.87 -3.32 2.54 -6.84 4.69 -7.81 4.69 -0.78 0 -6.64 3.13 -12.89 6.84 -6.25 3.91 -19.14 10.94 -28.32 15.82 -9.38 5.08 -19.14 10.55 -21.88 12.30 -2.73 1.76 -7.03 4.30 -9.77 5.66 -2.73 1.37 -8.40 4.49 -12.70 7.23 -4.30 2.54 -9.18 5.27 -10.74 5.86 -1.56 0.59 -5.08 2.54 -7.81 3.91 -2.73 1.56 -8.01 4.30 -11.72 6.05 -3.71 1.56 -18.55 8.59 -32.81 15.63 -14.26 6.84 -30.47 14.45 -36.13 16.60 -5.47 2.15 -15.04 6.45 -20.90 9.57 -5.86 3.13 -16.41 7.42 -23.24 9.57 -6.84 2.34 -13.48 4.88 -14.65 5.66 -1.17 0.98 -6.45 3.32 -11.91 5.27 -5.27 1.76 -11.52 4.10 -13.67 4.88 -6.25 2.73 -27.54 9.77 -28.91 9.77 -0.78 0 -1.37 -46.09 -1.37 -102.34z"/>
  <path d="M1779.30 1240.23 c-45.31 -9.77 -98.05 -21.88 -99.22 -22.66 -0.39 -0.20 0.98 -8.20 2.73 -17.77 2.73 -13.48 3.52 -26.56 3.52 -60.16 0 -37.11 -0.59 -45.70 -4.30 -62.89 -8.98 -41.41 -23.63 -76.56 -45.12 -109.18 -40.82 -61.72 -97.27 -101.76 -172.46 -122.27 -15.04 -4.10 -19.92 -4.49 -66.02 -4.30 -28.91 0 -53.52 0.98 -58.59 2.34 -35.74 8.59 -59.57 16.21 -68.36 21.48 -3.71 2.34 -8.20 4.30 -9.77 4.30 -1.76 0 -7.42 2.93 -12.70 6.45 -5.47 3.32 -12.30 7.42 -15.43 8.79 -3.13 1.37 -14.84 9.18 -25.98 17.19 -19.34 13.87 -23.44 16.41 -21.29 12.70 0.59 -0.78 -11.72 -16.41 -27.54 -34.57 -15.63 -18.16 -36.33 -42.19 -45.90 -53.52 -9.77 -11.33 -20.51 -23.83 -23.83 -27.73 l-6.45 -7.23 6.05 -5.66 c3.32 -3.13 13.09 -10.94 21.68 -17.38 58.79 -44.34 130.47 -75.98 202.15 -89.65 35.94 -6.84 109.57 -8.79 145.51 -3.71 78.13 10.94 158.01 45.51 219.34 95.12 38.28 30.86 80.47 79.30 107.03 122.66 61.52 101.17 83.20 231.25 58.20 352.15 -0.98 4.88 -1.76 5.27 -10.16 5.08 -5.08 0 -28.91 -4.30 -53.13 -9.57z"/>
  <path d="M1369.34 579.10 c-25 -5.47 -49.22 -15.63 -68.16 -28.71 -14.06 -9.77 -36.72 -32.23 -45.31 -44.92 -7.62 -11.52 -9.77 -16.60 -5.86 -14.26 1.17 0.78 4.49 -0.78 7.62 -3.52 3.13 -2.54 8.20 -5.66 11.72 -7.03 3.32 -1.56 6.05 -3.91 6.05 -5.66 0 -1.56 0.59 -2.54 1.17 -1.76 0.78 0.59 2.54 -0.20 4.10 -1.76 1.56 -1.56 3.71 -2.34 4.69 -1.76 0.98 0.78 1.76 0.20 1.76 -0.78 0 -1.17 1.76 -2.15 3.91 -2.15 2.15 0 3.91 -0.98 3.91 -2.15 0 -0.98 0.98 -1.37 1.95 -0.78 1.17 0.59 1.95 0 1.95 -1.37 0 -2.54 8.59 -7.42 13.09 -7.42 1.37 0 2.54 -1.17 2.54 -2.34 0 -1.95 0.39 -1.95 1.56 -0.20 1.17 1.76 2.34 1.37 4.30 -1.37 1.56 -2.15 4.30 -3.91 6.05 -3.91 1.95 0 3.71 -0.78 4.10 -1.56 0.98 -2.54 15.23 -10.16 18.95 -10.16 1.95 0 4.49 -2.34 5.66 -5.08 1.37 -2.73 3.13 -4.49 4.10 -3.91 0.98 0.59 2.73 -0.20 4.10 -1.56 1.17 -1.56 3.91 -2.54 6.05 -2.15 2.73 0.59 3.71 -0.39 3.71 -3.52 0 -3.52 0.39 -3.71 1.95 -1.37 0.98 1.56 1.95 1.95 1.95 0.78 0 -1.95 4.88 -4.49 10.35 -5.47 0.78 0 2.34 -1.37 3.13 -2.93 0.98 -1.37 2.73 -1.95 3.91 -1.37 1.17 0.78 2.15 0 2.15 -1.56 0 -1.76 0.59 -2.93 1.56 -2.93 3.91 0.59 8.20 -0.39 10.55 -2.93 1.56 -1.37 4.69 -3.32 7.03 -3.91 2.34 -0.78 3.91 -2.34 3.32 -3.32 -0.78 -0.98 0.78 -1.76 3.13 -1.76 2.34 0 5.66 -1.56 7.42 -3.32 1.76 -1.95 4.49 -3.71 6.05 -4.10 1.56 -0.39 3.13 -1.37 3.52 -2.34 0.39 -0.98 1.95 -1.17 3.52 -0.59 1.56 0.59 2.73 0.20 2.73 -0.98 0 -0.98 4.88 -4.30 10.74 -7.42 5.86 -3.13 10.74 -6.25 10.74 -7.03 0 -0.98 1.37 -1.56 2.93 -1.56 4.49 0 20.51 -8.40 19.34 -10.16 -0.59 -0.78 0.39 -1.56 1.95 -1.56 1.76 0 3.13 -0.78 3.13 -1.76 0 -0.98 2.73 -2.15 5.86 -2.93 3.32 -0.59 10.35 -5.27 15.82 -10.35 7.81 -7.42 10.16 -8.59 11.72 -6.25 1.17 1.76 1.76 1.95 1.76 0.39 0 -1.37 0.78 -2.54 1.95 -2.54 3.13 0 27.15 -17.19 25.98 -18.36 -0.78 -0.59 0.20 -1.17 1.95 -1.17 4.30 0 4.30 -0.78 -1.56 -9.18 -2.54 -3.91 -4.30 -7.62 -3.91 -8.01 4.30 -4.30 26.56 40.43 32.62 65.04 5.66 24.02 5.66 61.72 0 83.20 -5.47 20.70 -14.45 40.82 -25.20 56.84 -9.18 14.06 -40.63 48.44 -43.95 48.44 -1.17 0 -6.05 2.93 -11.13 6.64 -15.43 11.13 -27.93 17.19 -47.85 22.85 -17.38 5.08 -21.88 5.66 -47.85 5.47 -16.41 0 -33.79 -1.17 -41.02 -2.73z"/>
  <path d="M1232.03 459.57 c-0.39 -6.45 -0.78 -7.42 -2.34 -9.96 -0.78 -1.37 -0.98 -3.13 -0.39 -3.71 0.59 -0.59 0.20 -2.15 -0.78 -3.52 -2.54 -3.13 -5.86 -26.56 -5.86 -43.36 0 -23.83 3.32 -17.38 4.49 8.79 0.78 15.43 2.73 30.27 5.08 39.45 4.69 17.38 4.49 15.63 2.15 15.63 -0.98 0 -2.15 -1.56 -2.34 -3.32z"/>
 </g>
 <g fill="#2d8c7b">
  <path d="M1012.70 1534.77 c-22.27 -16.99 -49.41 -40.82 -74.41 -65.23 -23.63 -23.24 -86.72 -90.63 -86.72 -92.77 0 -2.34 109.77 -117.97 111.91 -117.97 1.37 0 18.36 17.19 37.70 38.09 50.20 53.91 78.91 81.25 110.16 104.49 7.03 5.08 13.28 9.96 14.26 10.74 0.78 0.59 -1.17 4.30 -4.49 8.01 -3.32 3.71 -25 33.01 -48.24 65.23 -23.05 32.23 -42.58 59.18 -43.36 59.96 -0.59 0.78 -8.20 -3.91 -16.80 -10.55z"/>
 </g>
 <g fill="#126c8d">
  <path d="M1287.89 1645.51 c-70.51 -8.01 -139.65 -29.69 -201.56 -63.09 -31.05 -16.99 -61.91 -37.70 -61.72 -41.41 0.20 -2.34 51.56 -75.20 88.09 -124.41 2.54 -3.52 5.86 -6.45 7.23 -6.45 1.56 0 10.55 4.88 19.92 10.94 48.83 30.86 106.05 50.98 162.89 57.62 25.98 2.93 81.45 1.17 101.56 -3.13 26.37 -5.86 68.95 -20.90 90.82 -32.03 86.91 -44.73 148.63 -116.02 176.95 -203.91 9.96 -30.86 8.20 -29.69 34.77 -22.85 25 6.25 124.80 27.34 130.08 27.34 6.05 0 6.05 1.17 0 25.20 -21.68 85.55 -65.63 161.91 -131.64 228.52 -31.05 31.45 -44.53 42.77 -77.34 64.45 -11.72 8.01 -23.63 15.82 -26.37 17.77 -5.47 3.52 -38.48 19.92 -59.57 29.30 -28.13 12.50 -73.63 25.78 -115.23 33.40 -29.69 5.47 -101.95 6.84 -138.87 2.73z"/>
 </g>
</svg>